<svg width="16" height="16" viewBox="0 0 16 16" fill="none" xmlns="http://www.w3.org/2000/svg">
<path d="M7.99967 14.6667C11.6815 14.6667 14.6663 11.6819 14.6663 8.00004C14.6663 4.31814 11.6815 1.33337 7.99967 1.33337C4.31777 1.33337 1.33301 4.31814 1.33301 8.00004C1.33301 11.6819 4.31777 14.6667 7.99967 14.6667ZM11.1367 7.04271C11.0212 7.74457 10.6534 8.08764 10.1563 8.20871C10.8177 8.57891 11.1361 9.14084 10.7955 10.1265C10.3721 11.3627 9.42414 11.4748 8.16854 11.2354L7.84527 12.54L7.11574 12.3592L7.43901 11.0546C7.35647 11.0326 7.27327 11.0133 7.19014 10.994C7.07547 10.9673 6.95701 10.9397 6.83981 10.906L6.51655 12.2108L5.78834 12.0303L6.11158 10.7256L4.66097 10.3305L5.02153 9.40797C5.02153 9.40797 5.56905 9.55857 5.56056 9.54911C5.76364 9.59851 5.86293 9.45664 5.90361 9.35731L6.42125 7.26571L6.79801 5.7791C6.81427 5.61841 6.76394 5.40819 6.46721 5.32821C6.48741 5.31638 5.93305 5.19584 5.93305 5.19584L6.14907 4.32156L7.64414 4.69208L7.96074 3.4141L8.71394 3.60077L8.39734 4.87875C8.59181 4.92105 8.78041 4.97245 8.97467 5.02183L9.29127 3.74385L10.0241 3.92547L9.69921 5.23695C10.6235 5.57609 11.2893 6.07855 11.1367 7.04271ZM7.73714 7.30291C8.17514 7.43451 9.47374 7.82477 9.69254 6.95584C9.89621 6.12983 8.77087 5.87749 8.24807 5.76026C8.18647 5.74643 8.13321 5.73449 8.09147 5.72371L7.70061 7.29191L7.73714 7.30291ZM7.06081 9.84957L7.12427 9.86837C7.66387 10.0289 9.19501 10.4843 9.40267 9.62184C9.61661 8.79124 8.24014 8.46777 7.62387 8.32297C7.55634 8.30711 7.49787 8.29337 7.45174 8.28137L7.06081 9.84957Z" fill="#F7931A"/>
</svg>
